<svg width="13" height="15" viewBox="0 0 13 15" fill="none" xmlns="http://www.w3.org/2000/svg">
<path d="M10.0493 6.09448C10.0493 5.94865 10.0024 5.82886 9.90869 5.73511L9.19775 5.03198C9.0988 4.93302 8.98161 4.88354 8.84619 4.88354C8.71077 4.88354 8.59359 4.93302 8.49463 5.03198L5.30713 8.21167L3.5415 6.44604C3.44255 6.34709 3.32536 6.29761 3.18994 6.29761C3.05452 6.29761 2.93734 6.34709 2.83838 6.44604L2.12744 7.14917C2.03369 7.24292 1.98682 7.36271 1.98682 7.50854C1.98682 7.64917 2.03369 7.76636 2.12744 7.86011L4.95557 10.6882C5.05452 10.7872 5.17171 10.8367 5.30713 10.8367C5.44775 10.8367 5.56755 10.7872 5.6665 10.6882L9.90869 6.44604C10.0024 6.35229 10.0493 6.23511 10.0493 6.09448ZM11.2134 4.34839C11.2134 4.34839 11.3475 4.57821 11.6157 5.03784C11.884 5.49748 12.0181 6.27157 12.0181 7.36011C12.0181 8.44865 11.7498 9.45256 11.2134 10.3718C10.6769 11.2911 9.94906 12.019 9.02979 12.5554C8.11051 13.0919 7.10661 13.3601 6.01807 13.3601C4.92952 13.3601 3.92562 13.0919 3.00635 12.5554C2.08708 12.019 1.35921 11.2911 0.822754 10.3718C0.286296 9.45256 0.0180664 8.44865 0.0180664 7.36011C0.0180664 6.27157 0.286296 5.26766 0.822754 4.34839C1.35921 3.42912 2.08708 2.70125 3.00635 2.16479C3.92562 1.62834 4.92952 1.36011 6.01807 1.36011C7.10661 1.36011 8.11051 1.62834 9.02979 2.16479C9.94906 2.70125 10.6769 3.42912 11.2134 4.34839Z" fill="#0E3E61"/>
</svg>
