<svg width="13" height="15" viewBox="0 0 13 15" fill="none" xmlns="http://www.w3.org/2000/svg">
<path d="M10.8096 6.09448C10.8096 5.94865 10.7627 5.82886 10.6689 5.73511L9.95801 5.03198C9.85905 4.93302 9.74186 4.88354 9.60645 4.88354C9.47103 4.88354 9.35384 4.93302 9.25488 5.03198L6.06738 8.21167L4.30176 6.44604C4.2028 6.34709 4.08561 6.29761 3.9502 6.29761C3.81478 6.29761 3.69759 6.34709 3.59863 6.44604L2.8877 7.14917C2.79395 7.24292 2.74707 7.36271 2.74707 7.50854C2.74707 7.64917 2.79395 7.76636 2.8877 7.86011L5.71582 10.6882C5.81478 10.7872 5.93197 10.8367 6.06738 10.8367C6.20801 10.8367 6.3278 10.7872 6.42676 10.6882L10.6689 6.44604C10.7627 6.35229 10.8096 6.23511 10.8096 6.09448ZM11.9736 4.34839C11.9736 4.34839 12.1077 4.57821 12.376 5.03784C12.6442 5.49748 12.7783 6.27157 12.7783 7.36011C12.7783 8.44865 12.5101 9.45256 11.9736 10.3718C11.4372 11.2911 10.7093 12.019 9.79004 12.5554C8.87077 13.0919 7.86686 13.3601 6.77832 13.3601C5.68978 13.3601 4.68587 13.0919 3.7666 12.5554C2.84733 12.019 2.11947 11.2911 1.58301 10.3718C1.04655 9.45256 0.77832 8.44865 0.77832 7.36011C0.77832 6.27157 1.04655 5.26766 1.58301 4.34839C2.11947 3.42912 2.84733 2.70125 3.7666 2.16479C4.68587 1.62834 5.68978 1.36011 6.77832 1.36011C7.86686 1.36011 8.87077 1.62834 9.79004 2.16479C10.7093 2.70125 11.4372 3.42912 11.9736 4.34839Z" fill="#2AB6C5"/>
</svg>
